<?xml version="1.0" encoding="utf-8"?>
<!-- Generator: Adobe Illustrator 23.0.2, SVG Export Plug-In . SVG Version: 6.00 Build 0)  -->
<svg version="1.1" id="TE_logo_copy_xA0_Image_1_" xmlns="http://www.w3.org/2000/svg" xmlns:xlink="http://www.w3.org/1999/xlink"
	 x="0px" y="0px" viewBox="0 0 137.16 41.4" style="enable-background:new 0 0 137.16 41.4;" xml:space="preserve">
<style type="text/css">
	.st0{fill:none;}
	.st1{fill:#35404F;}
	.st2{fill:#35404F;}
</style>
<g>
	<path class="st0" d="M137.28,41.52c-45.72,0-91.44,0-137.16,0c0-13.8,0-27.6,0-41.4c45.72,0,91.44,0,137.16,0
		C137.28,13.92,137.28,27.72,137.28,41.52z M21.37,32.84c1.57,0,3.07,0,4.62,0c0-0.26,0-0.47,0-0.69c0-5.98,0-11.96,0-17.93
		c0-0.28-0.03-0.57,0.05-0.83c0.1-0.33,0.24-0.67,0.45-0.95c0.35-0.45,0.88-0.51,1.41-0.5c3.12,0,6.24,0,9.36,0
		c0.21,0,0.43,0,0.64,0c0-1.4,0-2.73,0-4.05c-9.47,0-18.9,0-28.33,0c0,1.37,0,2.69,0,4.05c0.27,0,0.49,0,0.7,0
		c3.04,0,6.08,0.03,9.12-0.01c1.37-0.02,2,0.85,1.99,1.97c-0.03,6.08-0.02,12.16-0.02,18.23C21.37,32.34,21.37,32.56,21.37,32.84z
		 M115.1,22.32c1.42,0,2.84,0,4.26,0c0.06,0,0.12,0,0.18,0c2.32-0.07,3.8-1.38,3.91-3.68c0.1-2.23,0.11-4.47,0-6.7
		c-0.11-2.25-1.56-3.6-3.81-3.64c-3-0.05-6-0.05-8.99,0c-2.26,0.04-3.68,1.38-3.81,3.63c-0.11,1.91-0.09,3.83-0.09,5.75
		c0,0.55,0.09,1.12,0.19,1.66c0.3,1.49,1.17,2.46,2.67,2.81c0.44,0.1,0.91,0.15,1.36,0.16C112.34,22.33,113.72,22.32,115.1,22.32z
		 M61.12,15.93c3.57,0,7.08,0,10.58,0c0-0.53,0-1,0-1.53c-3.54,0-7.04,0-10.57,0c0-1.46,0-2.87,0-4.33c3.68,0,7.33,0,10.96,0
		c0-0.55,0-1.04,0-1.51c-4.28,0-8.53,0-12.77,0c0,4.56,0,9.07,0,13.6c4.31,0,8.59,0,12.86,0c0-0.53,0-1.02,0-1.55
		c-3.71,0-7.38,0-11.07,0C61.12,19.06,61.12,17.55,61.12,15.93z M102.46,17.54c-0.03,0.54-0.04,1.05-0.1,1.57
		c-0.07,0.72-0.44,1.25-1.17,1.42c-0.54,0.13-1.1,0.21-1.65,0.22c-1.96,0.03-3.92,0.02-5.88,0.01c-0.48,0-0.96-0.04-1.43-0.11
		c-1.18-0.16-1.96-0.91-1.99-2.1c-0.07-2.1-0.03-4.19-0.04-6.29c0-0.1,0.01-0.2,0.03-0.3c0.13-1.02,0.81-1.78,1.81-1.97
		c0.41-0.08,0.83-0.12,1.25-0.12c1.92-0.01,3.84-0.01,5.76,0c0.48,0,0.96,0.03,1.43,0.09c1.13,0.12,1.69,0.73,1.77,1.88
		c0.03,0.37,0.05,0.74,0.07,1.08c0.56,0,1.05,0,1.55,0c0-0.52,0.04-1-0.01-1.48c-0.16-1.64-0.87-2.52-2.35-2.95
		c-0.32-0.09-0.66-0.17-1-0.18C97.76,8.28,95,8.24,92.25,8.3c-2.26,0.05-3.68,1.41-3.78,3.67c-0.09,2.21-0.08,4.43,0,6.65
		c0.06,1.9,1.09,3.13,2.76,3.53c0.48,0.11,0.99,0.16,1.48,0.17c2.46,0.02,4.92,0.02,7.38,0c0.5,0,1-0.04,1.49-0.14
		c1.04-0.22,1.94-0.69,2.29-1.78c0.3-0.92,0.32-1.87,0.25-2.85C103.54,17.54,103.01,17.54,102.46,17.54z M33.67,12.27
		c-0.68,0.65-1.35,1.26-1.98,1.89c-0.34,0.34-0.29,0.51,0.01,0.93c0.65,0.91,1.38,1.77,1.89,2.75c1.68,3.23,1.61,6.49-0.14,9.67
		c-0.49,0.88-1.15,1.67-1.76,2.48c-0.22,0.29-0.36,0.56-0.08,0.85c0.66,0.69,1.34,1.35,2.01,2.02
		C39.62,27.06,39.51,17.92,33.67,12.27z M13.82,12.19c-6.4,6.15-5.54,15.73-0.02,20.66c0.58-0.57,1.16-1.15,1.74-1.72
		c0.5-0.49,0.51-0.73,0.03-1.26c-0.92-1.02-1.66-2.14-2.18-3.41c-0.76-1.89-1.03-3.83-0.6-5.85c0.44-2.02,1.37-3.77,2.74-5.3
		c0.49-0.55,0.51-0.79,0.09-1.23C15.04,13.45,14.44,12.83,13.82,12.19z M48.88,10.07c0,4.09,0,8.09,0,12.09c0.63,0,1.2,0,1.8,0
		c0-4.03,0-8.02,0-12.08c2.2,0,4.37,0,6.53,0c0-0.55,0-1.04,0-1.52c-5,0-9.96,0-14.92,0c0,0.52,0,0.99,0,1.51
		C44.47,10.07,46.63,10.07,48.88,10.07z M74.93,8.54c0,4.59,0,9.11,0,13.63c3.98,0,7.92,0,11.87,0c0-0.53,0-1.02,0-1.56
		c-3.38,0-6.73,0-10.11,0c0-2.05,0-4.04,0-6.04c0-2.01,0-4.02,0-6.04C76.07,8.54,75.52,8.54,74.93,8.54z M17.64,28.97
		c0.49-0.49,0.96-0.95,1.41-1.43c0.62-0.65,0.57-0.68,0.08-1.4c-0.48-0.7-0.97-1.44-1.23-2.23c-0.58-1.81,0-3.42,1.15-4.86
		c0.18-0.23,0.35-0.48,0.54-0.75c-0.52-0.86-1.29-1.44-1.92-2.14C14.17,19.31,13.73,25.24,17.64,28.97z M29.75,28.96
		c3.83-3.59,3.55-9.58,0-12.78c-0.54,0.53-1.08,1.06-1.61,1.6c-0.37,0.39-0.35,0.59,0,1.04c0.28,0.36,0.57,0.72,0.8,1.12
		c0.86,1.46,1.1,3,0.33,4.57c-0.3,0.62-0.71,1.2-1.12,1.76c-0.36,0.49-0.39,0.7,0.04,1.14C28.7,27.92,29.21,28.42,29.75,28.96z
		 M117.69,30.79c0,0.24-0.01,0.42,0,0.6c0.03,0.69,0.38,1.09,1.08,1.12c0.8,0.04,1.6,0.04,2.4-0.02c0.28-0.02,0.65-0.19,0.81-0.42
		c0.43-0.6,0.36-1.31,0.13-1.95c-0.21-0.58-0.79-0.61-1.32-0.62c-0.62-0.01-1.24,0.02-1.86-0.01c-0.53-0.03-0.74-0.29-0.73-0.82
		c0.01-0.55,0.21-0.8,0.72-0.83c0.56-0.03,1.12-0.03,1.68-0.02c0.81,0.01,0.88,0.09,1.04,0.94c0.16-0.01,0.32-0.02,0.48-0.02
		c0.04-1.06-0.25-1.45-1.2-1.54c-0.63-0.06-1.28-0.06-1.91-0.01c-1.01,0.07-1.37,0.51-1.36,1.51c0.02,1.05,0.34,1.4,1.39,1.45
		c0.62,0.03,1.24-0.01,1.86,0.03c0.61,0.03,0.79,0.24,0.8,0.81c0.01,0.64-0.2,0.91-0.82,0.94c-0.64,0.03-1.28,0.03-1.92,0
		c-0.51-0.02-0.69-0.23-0.75-0.75c-0.01-0.12-0.01-0.23-0.02-0.37C118.02,30.79,117.89,30.79,117.69,30.79z M101.81,32.46
		c0-1.78,0-3.48,0-5.21c-0.19,0-0.36,0-0.6,0c0,1.43,0,2.83,0,4.23c-0.04,0.02-0.09,0.03-0.13,0.05c-1.14-1.44-2.28-2.89-3.39-4.29
		c-0.32,0-0.58,0-0.82,0c0,1.76,0,3.49,0,5.26c0.21-0.03,0.37-0.05,0.58-0.08c0-1.47,0-2.89,0-4.42c1.22,1.55,2.37,3,3.52,4.46
		C101.25,32.46,101.5,32.46,101.81,32.46z M80.33,27.24c0,1.77,0,3.48,0,5.24c0.2-0.01,0.37-0.02,0.56-0.03c0-0.71,0-1.37,0-2.02
		c0.89,0,1.75-0.03,2.61,0.01c0.58,0.03,0.71,0.21,0.74,0.8c0.01,0.36,0,0.72,0.01,1.08c0,0.05,0.04,0.11,0.08,0.19
		c0.15-0.02,0.3-0.05,0.49-0.08c-0.1-0.8,0.23-1.63-0.43-2.23c0.15-0.25,0.38-0.47,0.41-0.71c0.06-0.47,0.04-0.96-0.02-1.43
		c-0.08-0.53-0.36-0.78-0.89-0.8C82.7,27.22,81.52,27.24,80.33,27.24z M90.77,32.52c0.44,0,0.88,0.01,1.32,0
		c0.63-0.02,1.09-0.3,1.13-0.93c0.08-1.14,0.07-2.3,0.02-3.45c-0.03-0.58-0.46-0.94-1.04-0.97c-0.94-0.04-1.87-0.04-2.81,0
		c-0.58,0.03-1.01,0.4-1.04,0.97c-0.06,1.13-0.06,2.27,0,3.39c0.04,0.63,0.51,0.95,1.16,0.97C89.93,32.53,90.35,32.52,90.77,32.52z
		 M43.49,27.23c0,1.75,0,3.47,0,5.22c1.31,0,2.58,0,3.87,0c0-0.21,0-0.39,0-0.64c-1.12,0-2.21,0-3.29,0c0-0.61,0-1.16,0-1.75
		c1.07,0,2.1,0,3.15,0c0-0.22,0-0.41,0-0.63c-1.07,0-2.1,0-3.15,0c0-0.55,0-1.06,0-1.62c1.12,0,2.21,0,3.32,0
		c-0.02-0.23-0.03-0.4-0.04-0.58C46.05,27.23,44.78,27.23,43.49,27.23z M61.31,30.07c0-0.22,0-0.41,0-0.66c-1.06,0-2.09,0-3.13,0
		c0-0.55,0-1.04,0-1.57c1.09,0,2.17,0,3.25,0c0-0.23,0-0.42,0-0.61c-1.29,0-2.54,0-3.8,0c0,1.75,0,3.48,0,5.21c1.3,0,2.57,0,3.88,0
		c-0.01-0.21-0.02-0.38-0.04-0.62c-1.13,0-2.21,0-3.28,0c0-0.62,0-1.17,0-1.75C59.26,30.07,60.27,30.07,61.31,30.07z M113.77,30.72
		c0,0.16,0.01,0.28,0,0.4c-0.03,0.55-0.22,0.77-0.76,0.79c-0.68,0.03-1.36,0.03-2.04,0c-0.48-0.02-0.79-0.27-0.81-0.72
		c-0.04-0.9-0.04-1.79,0-2.69c0.02-0.45,0.3-0.68,0.75-0.7c0.72-0.02,1.44-0.01,2.16,0c0.38,0,0.59,0.21,0.66,0.57
		c0.03,0.17,0.04,0.35,0.06,0.57c0.15-0.01,0.3-0.02,0.45-0.03c0-0.14,0-0.24,0-0.34c0-1.04-0.35-1.41-1.38-1.43
		c-0.66-0.01-1.32-0.02-1.98,0.01c-0.8,0.05-1.24,0.44-1.29,1.22c-0.06,0.97-0.06,1.96,0,2.93c0.05,0.85,0.53,1.21,1.39,1.22
		c0.68,0,1.36,0.01,2.04,0c0.9-0.01,1.23-0.31,1.31-1.19c0.02-0.19,0-0.39,0-0.61C114.15,30.72,114,30.72,113.77,30.72z M69.5,28.93
		c0.04-1.48-0.27-1.79-1.69-1.79c-0.48,0-0.96-0.01-1.44,0c-1.06,0.02-1.5,0.42-1.55,1.48c-0.04,0.82-0.02,1.64,0,2.46
		c0,0.22,0.05,0.44,0.13,0.64c0.18,0.5,0.53,0.79,1.07,0.8c0.82,0.01,1.64,0.02,2.46,0c0.67-0.02,1.03-0.36,1.1-1.02
		c0.02-0.22,0.01-0.44,0-0.66c0-0.03-0.03-0.07-0.07-0.13c-0.14,0.01-0.29,0.01-0.45,0.02c-0.01,0.17-0.01,0.31-0.03,0.44
		c-0.06,0.5-0.25,0.72-0.76,0.74c-0.68,0.03-1.36,0.03-2.04,0c-0.52-0.02-0.82-0.32-0.83-0.84c-0.03-0.82-0.03-1.64,0-2.46
		c0.02-0.54,0.3-0.79,0.84-0.81c0.66-0.02,1.32-0.02,1.98,0c0.57,0.01,0.72,0.18,0.78,0.76c0.01,0.11,0.02,0.23,0.03,0.36
		C69.2,28.93,69.33,28.93,69.5,28.93z M51.36,31.86c0-1.59,0-3.1,0-4.62c-0.22,0-0.39,0-0.56,0c0,1.75,0,3.46,0,5.2
		c1.21,0,2.4,0,3.6,0c0-0.21,0-0.38,0-0.58C53.39,31.86,52.42,31.86,51.36,31.86z M74.63,27.83c0,1.59,0,3.1,0,4.64
		c0.2-0.02,0.35-0.03,0.54-0.04c0-1.55,0-3.06,0-4.6c0.68,0,1.31,0,1.95,0c0-0.23,0-0.41,0-0.59c-1.52,0-3.01,0-4.5,0
		c0,0.21,0,0.38,0,0.59C73.28,27.83,73.91,27.83,74.63,27.83z M105.44,27.24c0,1.78,0,3.49,0,5.22c0.19,0,0.35,0,0.51,0
		c0-1.76,0-3.48,0-5.22C105.77,27.24,105.61,27.24,105.44,27.24z"/>
	<path class="st1" d="M21.37,32.84c0-0.27,0-0.49,0-0.71c0-6.08-0.02-12.16,0.02-18.23c0.01-1.13-0.62-1.99-1.99-1.97
		c-3.04,0.04-6.08,0.01-9.12,0.01c-0.22,0-0.44,0-0.7,0c0-1.36,0-2.68,0-4.05c9.43,0,18.85,0,28.33,0c0,1.32,0,2.65,0,4.05
		c-0.21,0-0.42,0-0.64,0c-3.12,0-6.24,0-9.36,0c-0.54,0-1.07,0.05-1.41,0.5c-0.21,0.27-0.35,0.61-0.45,0.95
		C25.97,13.64,26,13.94,26,14.21c0,5.98,0,11.96,0,17.93c0,0.22,0,0.43,0,0.69C24.45,32.84,22.94,32.84,21.37,32.84z"/>
	<path class="st1" d="M115.1,22.32c-1.38,0-2.76,0.01-4.14-0.01c-0.46-0.01-0.92-0.06-1.36-0.16c-1.5-0.35-2.37-1.32-2.67-2.81
		c-0.11-0.55-0.19-1.11-0.19-1.66c0-1.92-0.03-3.84,0.09-5.75c0.13-2.25,1.55-3.59,3.81-3.63c3-0.05,6-0.05,8.99,0
		c2.25,0.04,3.7,1.39,3.81,3.64c0.11,2.23,0.11,4.47,0,6.7c-0.11,2.29-1.59,3.6-3.91,3.68c-0.06,0-0.12,0-0.18,0
		C117.94,22.32,116.52,22.32,115.1,22.32z M115.16,20.76c0,0.02,0,0.03,0,0.05c1.5-0.05,3-0.05,4.49-0.17
		c1.22-0.1,1.96-0.88,2.03-2.12c0.08-1.38,0.07-2.76,0.07-4.14c0-0.8-0.01-1.6-0.08-2.4c-0.1-1.06-0.8-1.82-1.83-2.01
		c-0.43-0.08-0.87-0.12-1.31-0.12c-2.2-0.01-4.4-0.01-6.6,0c-0.44,0-0.88,0.04-1.31,0.1c-1.22,0.17-1.96,0.91-2.03,2.14
		c-0.08,1.34-0.07,2.68-0.07,4.02c0,0.84,0.01,1.68,0.08,2.52c0.09,1.08,0.83,1.85,1.89,2.02c0.45,0.07,0.91,0.11,1.37,0.12
		C112.96,20.77,114.06,20.76,115.16,20.76z"/>
	<path class="st1" d="M61.12,15.93c0,1.61,0,3.12,0,4.68c3.68,0,7.36,0,11.07,0c0,0.53,0,1.02,0,1.55c-4.27,0-8.55,0-12.86,0
		c0-4.53,0-9.04,0-13.6c4.24,0,8.48,0,12.77,0c0,0.47,0,0.96,0,1.51c-3.63,0-7.28,0-10.96,0c0,1.47,0,2.87,0,4.33
		c3.53,0,7.04,0,10.57,0c0,0.53,0,1,0,1.53C68.2,15.93,64.69,15.93,61.12,15.93z"/>
	<path class="st1" d="M102.46,17.54c0.55,0,1.08,0,1.65,0c0.06,0.98,0.04,1.94-0.25,2.85c-0.35,1.09-1.24,1.57-2.29,1.78
		c-0.48,0.1-0.99,0.14-1.49,0.14c-2.46,0.01-4.92,0.01-7.38,0c-0.5,0-1-0.05-1.48-0.17c-1.67-0.4-2.7-1.63-2.76-3.53
		c-0.08-2.21-0.09-4.44,0-6.65c0.1-2.26,1.52-3.62,3.78-3.67c2.76-0.06,5.52-0.02,8.28-0.01c0.33,0,0.67,0.08,1,0.18
		c1.48,0.43,2.19,1.31,2.35,2.95c0.05,0.47,0.01,0.95,0.01,1.48c-0.51,0-0.99,0-1.55,0c-0.02-0.34-0.04-0.71-0.07-1.08
		c-0.08-1.15-0.64-1.76-1.77-1.88c-0.48-0.05-0.96-0.08-1.43-0.09c-1.92-0.01-3.84-0.01-5.76,0c-0.42,0-0.84,0.04-1.25,0.12
		c-1,0.2-1.68,0.95-1.81,1.97c-0.01,0.1-0.03,0.2-0.03,0.3c0.01,2.1-0.03,4.2,0.04,6.29c0.04,1.19,0.82,1.94,1.99,2.1
		c0.47,0.07,0.95,0.11,1.43,0.11c1.96,0.01,3.92,0.02,5.88-0.01c0.55-0.01,1.11-0.1,1.65-0.22c0.72-0.17,1.09-0.69,1.17-1.42
		C102.41,18.59,102.43,18.07,102.46,17.54z"/>
	<path class="st2" d="M33.67,12.27c5.84,5.65,5.95,14.79-0.04,20.61c-0.67-0.67-1.35-1.33-2.01-2.02c-0.27-0.29-0.13-0.56,0.08-0.85
		c0.61-0.81,1.27-1.6,1.76-2.48c1.75-3.18,1.82-6.45,0.14-9.67c-0.51-0.98-1.24-1.85-1.89-2.75c-0.3-0.42-0.35-0.59-0.01-0.93
		C32.32,13.53,32.99,12.92,33.67,12.27z"/>
	<path class="st2" d="M13.82,12.19c0.62,0.65,1.22,1.26,1.81,1.88c0.42,0.44,0.4,0.68-0.09,1.23c-1.36,1.54-2.3,3.28-2.74,5.3
		c-0.44,2.03-0.16,3.96,0.6,5.85c0.51,1.27,1.26,2.4,2.18,3.41c0.48,0.54,0.47,0.77-0.03,1.26c-0.58,0.57-1.16,1.15-1.74,1.72
		C8.28,27.91,7.43,18.34,13.82,12.19z"/>
	<path class="st1" d="M48.88,10.07c-2.26,0-4.41,0-6.58,0c0-0.52,0-0.99,0-1.51c4.96,0,9.92,0,14.92,0c0,0.48,0,0.97,0,1.52
		c-2.16,0-4.33,0-6.53,0c0,4.06,0,8.05,0,12.08c-0.6,0-1.17,0-1.8,0C48.88,18.17,48.88,14.16,48.88,10.07z"/>
	<path class="st1" d="M74.93,8.54c0.59,0,1.14,0,1.76,0c0,2.02,0,4.03,0,6.04c0,1.99,0,3.99,0,6.04c3.38,0,6.72,0,10.11,0
		c0,0.54,0,1.03,0,1.56c-3.95,0-7.89,0-11.87,0C74.93,17.65,74.93,13.12,74.93,8.54z"/>
	<path class="st1" d="M17.64,28.97c-3.91-3.73-3.47-9.66,0.02-12.8c0.63,0.7,1.4,1.28,1.92,2.14c-0.19,0.27-0.35,0.52-0.54,0.75
		c-1.15,1.44-1.73,3.05-1.15,4.86c0.26,0.8,0.75,1.53,1.23,2.23c0.49,0.72,0.54,0.75-0.08,1.4C18.6,28.01,18.13,28.47,17.64,28.97z"
		/>
	<path class="st1" d="M29.75,28.96c-0.54-0.54-1.05-1.04-1.55-1.56c-0.42-0.43-0.39-0.64-0.04-1.14c0.41-0.56,0.81-1.14,1.12-1.76
		c0.77-1.57,0.53-3.1-0.33-4.57c-0.23-0.39-0.52-0.76-0.8-1.12c-0.35-0.44-0.37-0.65,0-1.04c0.53-0.54,1.07-1.07,1.61-1.6
		C33.31,19.38,33.58,25.37,29.75,28.96z"/>
	<path class="st1" d="M117.69,30.79c0.19,0,0.33,0,0.49,0c0.01,0.14,0.01,0.25,0.02,0.37c0.06,0.52,0.25,0.73,0.75,0.75
		c0.64,0.03,1.28,0.03,1.92,0c0.62-0.03,0.82-0.3,0.82-0.94c-0.01-0.57-0.19-0.78-0.8-0.81c-0.62-0.03-1.24,0-1.86-0.03
		c-1.05-0.05-1.38-0.41-1.39-1.45c-0.01-1,0.35-1.44,1.36-1.51c0.64-0.04,1.28-0.05,1.91,0.01c0.96,0.09,1.25,0.49,1.2,1.54
		c-0.16,0.01-0.32,0.02-0.48,0.02c-0.15-0.86-0.23-0.93-1.04-0.94c-0.56-0.01-1.12-0.01-1.68,0.02c-0.52,0.03-0.71,0.29-0.72,0.83
		c-0.01,0.53,0.2,0.79,0.73,0.82c0.62,0.03,1.24,0,1.86,0.01c0.53,0.01,1.11,0.04,1.32,0.62c0.23,0.65,0.3,1.36-0.13,1.95
		c-0.16,0.22-0.53,0.4-0.81,0.42c-0.8,0.06-1.6,0.05-2.4,0.02c-0.69-0.03-1.04-0.43-1.08-1.12
		C117.68,31.21,117.69,31.03,117.69,30.79z"/>
	<path class="st1" d="M101.81,32.46c-0.31,0-0.56,0-0.84,0C99.83,31,98.68,29.55,97.46,28c0,1.53,0,2.95,0,4.42
		c-0.21,0.03-0.38,0.05-0.58,0.08c0-1.77,0-3.5,0-5.26c0.24,0,0.49,0,0.82,0c1.11,1.4,2.25,2.84,3.39,4.29
		c0.04-0.02,0.09-0.03,0.13-0.05c0-1.4,0-2.8,0-4.23c0.24,0,0.4,0,0.6,0C101.81,28.97,101.81,30.68,101.81,32.46z"/>
	<path class="st1" d="M80.33,27.24c1.19,0,2.37-0.02,3.55,0.01c0.54,0.01,0.82,0.27,0.89,0.8c0.07,0.47,0.08,0.96,0.02,1.43
		c-0.03,0.24-0.26,0.46-0.41,0.71c0.66,0.6,0.32,1.43,0.43,2.23c-0.19,0.03-0.34,0.06-0.49,0.08c-0.03-0.08-0.07-0.13-0.08-0.19
		c-0.01-0.36,0-0.72-0.01-1.08c-0.02-0.59-0.15-0.77-0.74-0.8c-0.86-0.04-1.71-0.01-2.61-0.01c0,0.66,0,1.31,0,2.02
		c-0.2,0.01-0.36,0.02-0.56,0.03C80.33,30.72,80.33,29.01,80.33,27.24z M80.88,29.77c0.93,0,1.79,0.01,2.65,0
		c0.53-0.01,0.7-0.2,0.72-0.74c0.01-0.18,0-0.36,0-0.54c-0.01-0.41-0.25-0.63-0.64-0.64c-0.89-0.02-1.78-0.01-2.73-0.01
		c0,0.13,0,0.23,0,0.32C80.88,28.68,80.88,29.2,80.88,29.77z"/>
	<path class="st1" d="M90.77,32.52c-0.42,0-0.84,0.01-1.26,0c-0.65-0.02-1.13-0.34-1.16-0.97c-0.07-1.13-0.06-2.26,0-3.39
		c0.03-0.57,0.46-0.95,1.04-0.97c0.93-0.04,1.87-0.04,2.81,0c0.58,0.02,1.01,0.39,1.04,0.97c0.05,1.15,0.07,2.3-0.02,3.45
		c-0.05,0.62-0.5,0.91-1.13,0.93C91.65,32.53,91.21,32.52,90.77,32.52z M92.76,29.87C92.76,29.87,92.77,29.87,92.76,29.87
		c0-0.4,0.02-0.8,0-1.2c-0.03-0.6-0.31-0.86-0.91-0.87c-0.7-0.01-1.4-0.01-2.1,0c-0.6,0.01-0.88,0.2-0.92,0.79
		c-0.06,0.83-0.05,1.68-0.01,2.51c0.03,0.51,0.33,0.78,0.81,0.8c0.76,0.03,1.52,0.03,2.28,0c0.51-0.02,0.8-0.33,0.84-0.84
		C92.78,30.67,92.76,30.27,92.76,29.87z"/>
	<path class="st1" d="M43.49,27.23c1.28,0,2.56,0,3.87,0c0.01,0.18,0.02,0.35,0.04,0.58c-1.11,0-2.2,0-3.32,0c0,0.56,0,1.07,0,1.62
		c1.04,0,2.08,0,3.15,0c0,0.23,0,0.41,0,0.63c-1.05,0-2.09,0-3.15,0c0,0.59,0,1.14,0,1.75c1.08,0,2.17,0,3.29,0
		c0,0.24,0,0.43,0,0.64c-1.29,0-2.56,0-3.87,0C43.49,30.71,43.49,28.98,43.49,27.23z"/>
	<path class="st1" d="M61.31,30.07c-1.04,0-2.06,0-3.11,0c0,0.58,0,1.13,0,1.75c1.07,0,2.15,0,3.28,0c0.01,0.24,0.02,0.4,0.04,0.62
		c-1.31,0-2.58,0-3.88,0c0-1.73,0-3.46,0-5.21c1.25,0,2.51,0,3.8,0c0,0.19,0,0.38,0,0.61c-1.08,0-2.16,0-3.25,0
		c0,0.54,0,1.03,0,1.57c1.04,0,2.07,0,3.13,0C61.31,29.66,61.31,29.85,61.31,30.07z"/>
	<path class="st1" d="M113.77,30.72c0.23,0,0.38,0,0.56,0c0,0.22,0.02,0.42,0,0.61c-0.08,0.88-0.41,1.18-1.31,1.19
		c-0.68,0.01-1.36,0-2.04,0c-0.87-0.01-1.34-0.37-1.39-1.22c-0.06-0.97-0.06-1.96,0-2.93c0.05-0.78,0.49-1.17,1.29-1.22
		c0.66-0.04,1.32-0.03,1.98-0.01c1.04,0.02,1.39,0.39,1.38,1.43c0,0.1,0,0.2,0,0.34c-0.16,0.01-0.3,0.02-0.45,0.03
		c-0.02-0.21-0.03-0.39-0.06-0.57c-0.07-0.36-0.28-0.57-0.66-0.57c-0.72-0.01-1.44-0.02-2.16,0c-0.45,0.01-0.73,0.25-0.75,0.7
		c-0.04,0.9-0.04,1.79,0,2.69c0.02,0.44,0.33,0.7,0.81,0.72c0.68,0.02,1.36,0.03,2.04,0c0.54-0.02,0.73-0.25,0.76-0.79
		C113.78,30.99,113.77,30.88,113.77,30.72z"/>
	<path class="st1" d="M69.5,28.93c-0.17,0-0.3,0-0.46,0c-0.01-0.13-0.02-0.25-0.03-0.36c-0.06-0.58-0.21-0.74-0.78-0.76
		c-0.66-0.01-1.32-0.02-1.98,0c-0.54,0.01-0.82,0.27-0.84,0.81c-0.03,0.82-0.03,1.64,0,2.46c0.02,0.52,0.32,0.82,0.83,0.84
		c0.68,0.03,1.36,0.03,2.04,0c0.51-0.02,0.71-0.24,0.76-0.74c0.01-0.14,0.02-0.27,0.03-0.44c0.17-0.01,0.32-0.01,0.45-0.02
		c0.03,0.06,0.07,0.1,0.07,0.13c0,0.22,0.02,0.44,0,0.66c-0.07,0.66-0.43,1.01-1.1,1.02c-0.82,0.02-1.64,0.01-2.46,0
		c-0.54-0.01-0.9-0.3-1.07-0.8c-0.07-0.2-0.12-0.43-0.13-0.64c-0.01-0.82-0.04-1.64,0-2.46c0.05-1.06,0.49-1.46,1.55-1.48
		c0.48-0.01,0.96,0,1.44,0C69.23,27.13,69.54,27.44,69.5,28.93z"/>
	<path class="st1" d="M51.36,31.86c1.06,0,2.03,0,3.04,0c0,0.2,0,0.37,0,0.58c-1.2,0-2.39,0-3.6,0c0-1.74,0-3.45,0-5.2
		c0.17,0,0.34,0,0.56,0C51.36,28.76,51.36,30.27,51.36,31.86z"/>
	<path class="st1" d="M74.63,27.83c-0.72,0-1.36,0-2.01,0c0-0.21,0-0.38,0-0.59c1.49,0,2.98,0,4.5,0c0,0.18,0,0.36,0,0.59
		c-0.64,0-1.27,0-1.95,0c0,1.55,0,3.05,0,4.6c-0.19,0.02-0.34,0.03-0.54,0.04C74.63,30.93,74.63,29.42,74.63,27.83z"/>
	<path class="st1" d="M105.44,27.24c0.17,0,0.33,0,0.51,0c0,1.73,0,3.46,0,5.22c-0.17,0-0.32,0-0.51,0
		C105.44,30.73,105.44,29.01,105.44,27.24z"/>
	<path class="st0" d="M115.16,20.76c-1.1,0-2.2,0.01-3.3-0.01c-0.46-0.01-0.92-0.04-1.37-0.12c-1.06-0.17-1.8-0.94-1.89-2.02
		c-0.07-0.83-0.08-1.68-0.08-2.52c0-1.34,0-2.68,0.07-4.02c0.07-1.23,0.82-1.97,2.03-2.14c0.43-0.06,0.87-0.1,1.31-0.1
		c2.2-0.01,4.4-0.01,6.6,0c0.44,0,0.88,0.04,1.31,0.12c1.03,0.19,1.74,0.95,1.83,2.01c0.07,0.79,0.08,1.6,0.08,2.4
		c0,1.38,0.01,2.76-0.07,4.14c-0.07,1.24-0.81,2.02-2.03,2.12c-1.49,0.12-2.99,0.12-4.49,0.17
		C115.17,20.79,115.17,20.78,115.16,20.76z"/>
	<path class="st0" d="M80.88,29.77c0-0.58,0-1.09,0-1.61c0-0.09,0-0.19,0-0.32c0.94,0,1.84-0.01,2.73,0.01
		c0.39,0.01,0.62,0.23,0.64,0.64c0.01,0.18,0.01,0.36,0,0.54c-0.03,0.54-0.2,0.73-0.72,0.74C82.67,29.78,81.81,29.77,80.88,29.77z"
		/>
	<path class="st0" d="M92.76,29.87c0,0.4,0.02,0.8-0.01,1.2c-0.03,0.51-0.33,0.82-0.84,0.84c-0.76,0.03-1.52,0.03-2.28,0
		c-0.48-0.02-0.78-0.3-0.81-0.8c-0.04-0.84-0.05-1.68,0.01-2.51c0.04-0.59,0.32-0.78,0.92-0.79c0.7-0.01,1.4-0.01,2.1,0
		c0.6,0.01,0.87,0.27,0.91,0.87C92.78,29.07,92.77,29.47,92.76,29.87C92.77,29.87,92.76,29.87,92.76,29.87z"/>
</g>
</svg>
